<svg xmlns="http://www.w3.org/2000/svg" width="124" height="124" viewBox="0 0 124 124"><defs><style>.a{fill:#ccc;}.b{fill:#f5f5f5;}</style></defs><g transform="translate(-1560 -631)"><rect class="a" width="124" height="124" transform="translate(1560 631)"/><g transform="translate(1588.458 659.454)"><path class="b" d="M37,4.983,5.793.24A5.033,5.033,0,0,0,1.761,1.348,5.078,5.078,0,0,0,0,5.153V64.989a2.848,2.848,0,0,0,2.84,2.84h9.229V52.919a4.957,4.957,0,0,1,4.97-4.97h7.1a4.957,4.957,0,0,1,4.97,4.97V67.829H41.178V9.9A4.973,4.973,0,0,0,37,4.983ZM15.619,41.56h-4.26a2.13,2.13,0,0,1,0-4.26h4.26a2.13,2.13,0,1,1,0,4.26Zm0-8.52h-4.26a2.13,2.13,0,0,1,0-4.26h4.26a2.13,2.13,0,1,1,0,4.26Zm0-8.52h-4.26a2.13,2.13,0,1,1,0-4.26h4.26a2.13,2.13,0,1,1,0,4.26Zm0-8.52h-4.26a2.13,2.13,0,0,1,0-4.26h4.26a2.13,2.13,0,1,1,0,4.26Zm14.2,25.559h-4.26a2.13,2.13,0,0,1,0-4.26h4.26a2.13,2.13,0,0,1,0,4.26Zm0-8.52h-4.26a2.13,2.13,0,0,1,0-4.26h4.26a2.13,2.13,0,1,1,0,4.26Zm0-8.52h-4.26a2.13,2.13,0,0,1,0-4.26h4.26a2.13,2.13,0,1,1,0,4.26Zm0-8.52h-4.26a2.13,2.13,0,0,1,0-4.26h4.26a2.13,2.13,0,1,1,0,4.26Z" transform="translate(0 -0.178)"/><path class="b" d="M35.72,13.585,15.5,9.351v41.6H34.669a4.975,4.975,0,0,0,4.97-4.97V18.441A4.945,4.945,0,0,0,35.72,13.585Zm-6.73,28.847h-4.26a2.13,2.13,0,1,1,0-4.26h4.26a2.13,2.13,0,0,1,0,4.26Zm0-8.52h-4.26a2.13,2.13,0,1,1,0-4.26h4.26a2.13,2.13,0,0,1,0,4.26Zm0-8.52h-4.26a2.13,2.13,0,1,1,0-4.26h4.26a2.13,2.13,0,0,1,0,4.26Z" transform="translate(28.517 16.699)"/></g></g></svg>