<svg xmlns="http://www.w3.org/2000/svg" width="24" height="24" viewBox="0 0 24 24"><defs><style>.a{fill:#fff;stroke:#707070;opacity:0;}.b{fill:#262262;}.c{stroke:none;}.d{fill:none;}</style></defs><g transform="translate(-1318.855 -1103)"><g class="a" transform="translate(1318.855 1103)"><rect class="c" width="24" height="24"/><rect class="d" x="0.5" y="0.5" width="23" height="23"/></g><g transform="translate(1319.605 1103.75)"><path class="b" d="M18.965,2.25H11.25A1.287,1.287,0,0,0,9.964,3.536V9.964H3.536A1.287,1.287,0,0,0,2.25,11.25v9h18V3.536A1.287,1.287,0,0,0,18.965,2.25ZM6.75,18.965v-4.5H9.322v4.5Zm12.214,0H10.607V13.822a.643.643,0,0,0-.643-.643H6.107a.643.643,0,0,0-.643.643v5.143H3.536V11.25H11.25V3.536h7.714Z"/><path class="b" d="M20.25,9H21.4v1.146H20.25Z" transform="translate(-7.628 -2.86)"/><path class="b" d="M27,9h1.146v1.146H27Z" transform="translate(-10.187 -2.86)"/><path class="b" d="M20.25,15.75H21.4V16.9H20.25Z" transform="translate(-7.628 -5.721)"/><path class="b" d="M27,15.75h1.146V16.9H27Z" transform="translate(-10.187 -5.721)"/><path class="b" d="M20.25,22.5H21.4v1.146H20.25Z" transform="translate(-7.628 -8.581)"/><path class="b" d="M27,22.5h1.146v1.146H27Z" transform="translate(-10.187 -8.581)"/></g></g></svg>