<svg xmlns="http://www.w3.org/2000/svg" width="24" height="24" viewBox="0 0 24 24"><defs><style>.a{fill:#fff;stroke:#707070;opacity:0;}.b{fill:#262262;}.c{stroke:none;}.d{fill:none;}</style></defs><g transform="translate(-1318.855 -1103)"><g class="a" transform="translate(1318.855 1103)"><rect class="c" width="24" height="24"/><rect class="d" x="0.5" y="0.5" width="23" height="23"/></g><path class="b" d="M7,18H7L1.4,10.287A6.113,6.113,0,0,1,0,6.429,6.307,6.307,0,0,1,2.06,1.876,7.09,7.09,0,0,1,6.911,0h.178a7.091,7.091,0,0,1,4.852,1.877A6.306,6.306,0,0,1,14,6.43a6.11,6.11,0,0,1-1.4,3.856L7,18ZM6.915,1.2A5.523,5.523,0,0,0,1.273,6.429,4.936,4.936,0,0,0,2.409,9.555l.021.027.021.027L7,15.875l4.55-6.266.021-.027.021-.026a4.942,4.942,0,0,0,1.136-3.127A5.522,5.522,0,0,0,7.085,1.2h-.17ZM7,9.6a3.1,3.1,0,0,1-3.182-3A3.1,3.1,0,0,1,7,3.6a3.1,3.1,0,0,1,3.182,3A3.1,3.1,0,0,1,7,9.6ZM7,4.8A1.859,1.859,0,0,0,5.09,6.6,1.859,1.859,0,0,0,7,8.4,1.859,1.859,0,0,0,8.909,6.6,1.859,1.859,0,0,0,7,4.8Z" transform="translate(1323.855 1106)"/></g></svg>