<svg xmlns="http://www.w3.org/2000/svg" width="24" height="24" viewBox="0 0 24 24"><defs><style>.a{fill:#fff;stroke:#707070;opacity:0;}.b{fill:#262262;}.c{stroke:none;}.d{fill:none;}</style></defs><g transform="translate(-1333.855 -1103)"><g class="a" transform="translate(1333.855 1103)"><rect class="c" width="24" height="24"/><rect class="d" x="0.5" y="0.5" width="23" height="23"/></g><path class="b" d="M16.116,16.167H1.667A1.7,1.7,0,0,1,0,14.434V5.2A1.7,1.7,0,0,1,1.667,3.466H4.446V1.733A1.7,1.7,0,0,1,6.113,0h5.556a1.7,1.7,0,0,1,1.667,1.733V3.466h2.778A1.7,1.7,0,0,1,17.782,5.2v9.237A1.7,1.7,0,0,1,16.116,16.167ZM1.111,9.239v5.2a.57.57,0,0,0,.557.577H16.115a.569.569,0,0,0,.557-.577v-5.2H11.114v.923a.809.809,0,0,1-.809.807H7.477a.809.809,0,0,1-.809-.807V9.239ZM7.78,8.084V9.816H10V8.084Zm-.3-1.156h2.828a.809.809,0,0,1,.809.809v.347h5.557V5.2a.567.567,0,0,0-.555-.577H1.667a.568.568,0,0,0-.557.577V8.084H6.668V7.737A.809.809,0,0,1,7.477,6.928ZM6.112,1.156a.567.567,0,0,0-.554.577V3.466h6.668V1.733a.567.567,0,0,0-.555-.577Z" transform="translate(1336.855 1107)"/></g></svg>